<?xml version="1.0" encoding="UTF-8" standalone="no"?>
<svg
   viewBox="0 0 32 32"
   fillRule="evenodd"
   height="32"
   width="32"
   version="1.1"
   id="svg1"
   xmlns="http://www.w3.org/2000/svg"
   xmlns:svg="http://www.w3.org/2000/svg">
  <defs
     id="defs1" />
  <path
     d="m 12.349,21 -0.39,0.982 h 0.773 z m 2.29,-10.224 V 7.909 c 0,-0.457 -0.21,-0.668 -0.648,-0.668 h -0.713 v 4.204 h 0.713 c 0.438,0 0.648,-0.212 0.648,-0.668 z M 26.337,1.757 H 5.36 c -1.702,0 -2.328,0.627 -2.328,2.328 v 20.526 l 0.025,0.537 c 0.038,0.372 0.047,0.732 0.392,1.14 a 7.23,7.23 0 0 0 0.387,0.302 l 0.533,0.248 10.329,4.327 c 0.537,0.245 0.76,0.342 1.15,0.333 h 0.003 c 0.39,0.008 0.613,-0.088 1.15,-0.333 L 27.33,26.838 27.863,26.59 28.25,26.288 c 0.345,-0.41 0.353,-0.77 0.392,-1.14 a 5.28,5.28 0 0 0 0.025,-0.537 V 4.086 c 0,-1.702 -0.628,-2.328 -2.328,-2.328 h -0.002 z m -9.181,3.952 h 1.735 v 11.404 h -1.735 z m 0.117,14.181 h 1.01 v 3.45 h -0.952 v -1.982 l -0.882,1.35 h -0.02 l -0.877,-1.34 v 1.972 h -0.937 v -3.45 h 1.01 l 0.823,1.337 0.823,-1.337 z M 11.543,5.709 h 2.723 c 1.41,0 2.108,0.7 2.108,2.118 v 3.03 c 0,1.417 -0.697,2.118 -2.108,2.118 h -0.988 v 4.139 h -1.735 z m -4.729,0 h 3.859 v 1.58 H 8.549 v 3.225 h 2.043 v 1.58 H 8.549 v 3.438 h 2.157 v 1.58 H 6.814 Z m 3.317,17.169 c -0.365,0.3 -0.873,0.532 -1.498,0.532 -1.075,0 -1.878,-0.74 -1.878,-1.785 v -0.01 c 0,-1.005 0.788,-1.795 1.858,-1.795 0.607,0 1.035,0.187 1.4,0.503 L 9.451,20.998 C 9.204,20.791 8.958,20.673 8.618,20.673 c -0.498,0 -0.882,0.418 -0.882,0.947 v 0.01 a 0.91,0.91 0 0 0 0.937,0.957 c 0.232,0 0.41,-0.05 0.552,-0.143 v -0.418 h -0.68 v -0.7 h 1.587 v 1.553 z m 1.765,-3.012 h 0.922 l 1.468,3.475 h -1.025 l -0.252,-0.617 h -1.332 l -0.247,0.617 h -1.005 l 1.468,-3.475 h 0.002 z m 3.874,9.231 -4.862,-1.672 h 9.931 z m 5.947,-5.755 h -2.8 v -3.45 h 2.775 v 0.813 h -1.828 v 0.523 h 1.657 v 0.755 h -1.657 v 0.547 h 1.854 v 0.813 -0.002 z M 19.81,15.093 V 7.729 c 0,-1.417 0.697,-2.118 2.108,-2.118 h 0.843 c 1.41,0 2.092,0.685 2.092,2.102 v 2.33 H 23.151 V 7.811 c 0,-0.457 -0.212,-0.668 -0.648,-0.668 h -0.292 c -0.453,0 -0.665,0.212 -0.665,0.668 v 7.2 c 0,0.457 0.212,0.668 0.665,0.668 h 0.325 c 0.438,0 0.648,-0.212 0.648,-0.668 v -2.573 h 1.702 v 2.655 c 0,1.417 -0.697,2.119 -2.108,2.119 h -0.86 c -1.41,0 -2.108,-0.7 -2.108,-2.119 z m 5.165,7.184 c 0,0.705 -0.557,1.123 -1.395,1.123 -0.612,0 -1.193,-0.192 -1.617,-0.572 l 0.532,-0.637 a 1.77,1.77 0 0 0 1.118,0.413 c 0.257,0 0.395,-0.088 0.395,-0.237 v -0.01 c 0,-0.143 -0.113,-0.222 -0.582,-0.33 -0.735,-0.168 -1.302,-0.375 -1.302,-1.085 v -0.01 c 0,-0.642 0.508,-1.105 1.337,-1.105 0.587,0 1.045,0.158 1.42,0.458 l -0.478,0.675 c -0.315,-0.222 -0.66,-0.34 -0.967,-0.34 -0.232,0 -0.345,0.098 -0.345,0.222 v 0.01 c 0,0.158 0.118,0.227 0.597,0.335 0.793,0.173 1.287,0.428 1.287,1.075 v 0.01 0.003 z"
     id="path1"
     style="fill:#ffffff" />
</svg>
